<svg width="33" height="30" viewBox="0 0 33 30" fill="none" xmlns="http://www.w3.org/2000/svg">
<g filter="url(#filter0_bi_1_5)">
<path d="M10.3125 6.09375C10.5973 6.09375 10.8281 5.88388 10.8281 5.625C10.8281 5.36612 10.5973 5.15625 10.3125 5.15625C10.0277 5.15625 9.79688 5.36612 9.79688 5.625C9.79688 5.88388 10.0277 6.09375 10.3125 6.09375Z" fill="#1B937D"/>
<path d="M32.786 13.6819C32.6509 13.5937 32.4777 13.5689 32.3214 13.6177L26.8125 15.2869V12.1875C26.8125 11.1511 25.89 10.3125 24.75 10.3125H22.4957C24.1642 9.30562 25.2656 7.58297 25.2656 5.625C25.2656 2.51766 22.4947 0 19.0781 0C16.5397 0 14.3607 1.39125 13.4062 3.38016C12.4518 1.39125 10.2728 0 7.73438 0C4.31784 0 1.54688 2.51766 1.54688 5.625C1.54688 7.58297 2.64825 9.30562 4.31681 10.3125H2.0625C0.922453 10.3125 0 11.1511 0 12.1875V28.125C0 29.1614 0.922453 30 2.0625 30H24.75C25.89 30 26.8125 29.1614 26.8125 28.125V25.0252L32.3214 26.6948C32.3745 26.7108 32.4297 26.7188 32.4844 26.7188C32.5911 26.7188 32.6968 26.6888 32.786 26.6306C32.9206 26.542 33 26.4005 33 26.25V14.0625C33 13.912 32.9206 13.7705 32.786 13.6819ZM19.0781 22.9688C19.0781 23.2275 18.8476 23.4375 18.5625 23.4375H8.25C7.96486 23.4375 7.73438 23.2275 7.73438 22.9688V17.3438C7.73438 17.085 7.96486 16.875 8.25 16.875H18.5625C18.8476 16.875 19.0781 17.085 19.0781 17.3438V22.9688ZM6.1875 7.96875C6.1875 7.1925 6.8805 6.5625 7.73438 6.5625C8.58825 6.5625 9.28125 7.1925 9.28125 7.96875C9.28125 8.745 8.58825 9.375 7.73438 9.375C6.8805 9.375 6.1875 8.745 6.1875 7.96875ZM17.5312 7.96875C17.5312 7.1925 18.2242 6.5625 19.0781 6.5625C19.932 6.5625 20.625 7.1925 20.625 7.96875C20.625 8.745 19.932 9.375 19.0781 9.375C18.2242 9.375 17.5312 8.745 17.5312 7.96875ZM23.2031 5.625C23.2031 6.40125 22.5101 7.03125 21.6562 7.03125C20.8024 7.03125 20.1094 6.40125 20.1094 5.625C20.1094 4.84875 20.8024 4.21875 21.6562 4.21875C22.5101 4.21875 23.2031 4.84875 23.2031 5.625ZM19.0781 1.875C19.932 1.875 20.625 2.505 20.625 3.28125C20.625 4.0575 19.932 4.6875 19.0781 4.6875C18.2242 4.6875 17.5312 4.0575 17.5312 3.28125C17.5312 2.505 18.2242 1.875 19.0781 1.875ZM16.5 4.21875C17.3539 4.21875 18.0469 4.84875 18.0469 5.625C18.0469 6.40125 17.3539 7.03125 16.5 7.03125C15.6461 7.03125 14.9531 6.40125 14.9531 5.625C14.9531 4.84875 15.6461 4.21875 16.5 4.21875ZM13.4062 7.86984C13.8853 8.86875 14.6726 9.71578 15.6606 10.3125H11.1519C12.1399 9.71625 12.9272 8.86875 13.4062 7.86984ZM11.8594 5.625C11.8594 6.40125 11.1664 7.03125 10.3125 7.03125C9.45862 7.03125 8.76562 6.40125 8.76562 5.625C8.76562 4.84875 9.45862 4.21875 10.3125 4.21875C11.1664 4.21875 11.8594 4.84875 11.8594 5.625ZM7.73438 1.875C8.58825 1.875 9.28125 2.505 9.28125 3.28125C9.28125 4.0575 8.58825 4.6875 7.73438 4.6875C6.8805 4.6875 6.1875 4.0575 6.1875 3.28125C6.1875 2.505 6.8805 1.875 7.73438 1.875ZM3.60938 5.625C3.60938 4.84875 4.30237 4.21875 5.15625 4.21875C6.01013 4.21875 6.70312 4.84875 6.70312 5.625C6.70312 6.40125 6.01013 7.03125 5.15625 7.03125C4.30237 7.03125 3.60938 6.40125 3.60938 5.625ZM29.9062 24.9745L26.8125 24.037V16.275L29.9062 15.338V24.9745ZM31.9688 25.5994L30.9375 25.2867V15.0258L31.9688 14.7131V25.5994Z" fill="#1B937D"/>
<path d="M7.73438 8.4375C8.01915 8.4375 8.25 8.22763 8.25 7.96875C8.25 7.70987 8.01915 7.5 7.73438 7.5C7.4496 7.5 7.21875 7.70987 7.21875 7.96875C7.21875 8.22763 7.4496 8.4375 7.73438 8.4375Z" fill="#1B937D"/>
<path d="M5.15625 6.09375C5.44102 6.09375 5.67188 5.88388 5.67188 5.625C5.67188 5.36612 5.44102 5.15625 5.15625 5.15625C4.87148 5.15625 4.64062 5.36612 4.64062 5.625C4.64062 5.88388 4.87148 6.09375 5.15625 6.09375Z" fill="#1B937D"/>
<path d="M7.73438 3.75C8.01915 3.75 8.25 3.54013 8.25 3.28125C8.25 3.02237 8.01915 2.8125 7.73438 2.8125C7.4496 2.8125 7.21875 3.02237 7.21875 3.28125C7.21875 3.54013 7.4496 3.75 7.73438 3.75Z" fill="#1B937D"/>
<path d="M19.0781 8.4375C19.3629 8.4375 19.5938 8.22763 19.5938 7.96875C19.5938 7.70987 19.3629 7.5 19.0781 7.5C18.7934 7.5 18.5625 7.70987 18.5625 7.96875C18.5625 8.22763 18.7934 8.4375 19.0781 8.4375Z" fill="#1B937D"/>
<path d="M19.0781 3.75C19.3629 3.75 19.5938 3.54013 19.5938 3.28125C19.5938 3.02237 19.3629 2.8125 19.0781 2.8125C18.7934 2.8125 18.5625 3.02237 18.5625 3.28125C18.5625 3.54013 18.7934 3.75 19.0781 3.75Z" fill="#1B937D"/>
<path d="M16.5 6.09375C16.7848 6.09375 17.0156 5.88388 17.0156 5.625C17.0156 5.36612 16.7848 5.15625 16.5 5.15625C16.2152 5.15625 15.9844 5.36612 15.9844 5.625C15.9844 5.88388 16.2152 6.09375 16.5 6.09375Z" fill="#1B937D"/>
<path d="M21.6562 6.09375C21.941 6.09375 22.1719 5.88388 22.1719 5.625C22.1719 5.36612 21.941 5.15625 21.6562 5.15625C21.3715 5.15625 21.1406 5.36612 21.1406 5.625C21.1406 5.88388 21.3715 6.09375 21.6562 6.09375Z" fill="#1B937D"/>
<path d="M18.0469 17.8125H8.76562V22.5H18.0469V17.8125Z" fill="#1B937D"/>
</g>
<defs>
<filter id="filter0_bi_1_5" x="-8" y="-8" width="49" height="46" filterUnits="userSpaceOnUse" color-interpolation-filters="sRGB">
<feFlood flood-opacity="0" result="BackgroundImageFix"/>
<feGaussianBlur in="BackgroundImageFix" stdDeviation="4"/>
<feComposite in2="SourceAlpha" operator="in" result="effect1_backgroundBlur_1_5"/>
<feBlend mode="normal" in="SourceGraphic" in2="effect1_backgroundBlur_1_5" result="shape"/>
<feColorMatrix in="SourceAlpha" type="matrix" values="0 0 0 0 0 0 0 0 0 0 0 0 0 0 0 0 0 0 127 0" result="hardAlpha"/>
<feOffset dy="4"/>
<feGaussianBlur stdDeviation="2"/>
<feComposite in2="hardAlpha" operator="arithmetic" k2="-1" k3="1"/>
<feColorMatrix type="matrix" values="0 0 0 0 0 0 0 0 0 0 0 0 0 0 0 0 0 0 0.25 0"/>
<feBlend mode="normal" in2="shape" result="effect2_innerShadow_1_5"/>
</filter>
</defs>
</svg>
